<svg xmlns="http://www.w3.org/2000/svg" xmlns:xlink="http://www.w3.org/1999/xlink" viewBox="0 0 196.27 179.59"><defs><style>.cls-1{fill:#5b36a0;}.cls-2{fill:#6862e6;}.cls-21,.cls-3,.cls-4{opacity:0.25;}.cls-13,.cls-21,.cls-3,.cls-4,.cls-5{isolation:isolate;}.cls-3{fill:url(#linear-gradient);}.cls-4{fill:url(#linear-gradient-2);}.cls-5{opacity:0.46;fill:url(#linear-gradient-3);}.cls-6{fill:#68e1fd;}.cls-7{fill:#974c26;}.cls-8{fill:#999a1c;}.cls-9{fill:#a1482d;}.cls-10{fill:#f47b56;}.cls-11{fill:#fff;}.cls-12{fill:#ab643c;}.cls-13{opacity:0.32;fill:url(#linear-gradient-4);}.cls-14{fill:#e2ac00;}.cls-15{fill:#f2f2f2;}.cls-16{fill:#ff8f6f;}.cls-17{fill:#003b94;}.cls-18{fill:#3e2928;}.cls-19{fill:#ffb5a9;}.cls-20{fill:#007f68;}.cls-21{fill:url(#linear-gradient-5);}</style><linearGradient id="linear-gradient" x1="-214.39" y1="-17.66" x2="-214.59" y2="-17.47" gradientTransform="translate(11445.64 733.78) scale(52.93 35.76)" gradientUnits="userSpaceOnUse"><stop offset="0" stop-color="#7f3500"/><stop offset="1" stop-color="#231f20" stop-opacity="0"/></linearGradient><linearGradient id="linear-gradient-2" x1="-213.66" y1="-7.26" x2="-214.18" y2="-6.92" gradientTransform="translate(9372.66 329.99) scale(43.55 25.69)" gradientUnits="userSpaceOnUse"><stop offset="0.03" stop-color="#7f3500"/><stop offset="1" stop-color="#231f20" stop-opacity="0"/></linearGradient><linearGradient id="linear-gradient-3" x1="-211.41" y1="8.78" x2="-212" y2="9.22" gradientTransform="translate(5555.71 -82.18) scale(26.11 17.98)" gradientUnits="userSpaceOnUse"><stop offset="0" stop-color="#843c09" stop-opacity="0.85"/><stop offset="1" stop-color="#231f20" stop-opacity="0"/></linearGradient><linearGradient id="linear-gradient-4" x1="-214.78" y1="-16.63" x2="-214.92" y2="-16.69" gradientTransform="translate(14032.78 652.53) scale(64.69 34.67)" gradientUnits="userSpaceOnUse"><stop offset="0" stop-color="#fff" stop-opacity="0"/><stop offset="0.99" stop-color="#dc841e"/></linearGradient><linearGradient id="linear-gradient-5" x1="-213.6" y1="-8.1" x2="-214.01" y2="-7.82" gradientTransform="translate(9314.23 325) scale(43.54 26.33)" xlink:href="#linear-gradient-2"/></defs><g id="Layer_2" data-name="Layer 2"><g id="Layer_1-2" data-name="Layer 1"><g id="Layer_2-2" data-name="Layer 2"><g id="Layer_1-2-2" data-name="Layer 1-2"><g id="Page-1"><g id="Group-4"><g id="mention_isometric-2" data-name="mention isometric-2"><g id="mention_isometric" data-name="mention isometric"><path id="Path" class="cls-1" d="M74.34,177.69,0,133.17.36,83.6l11.8-7.94L71.64,41.39c1.65-1,4.18-1.7,5.87-.72l115.78,67.19c3.52,2,4.15,7.72.65,9.78l-105.06,60A14.7,14.7,0,0,1,74.34,177.69Z"/><path id="Path-Copy" class="cls-2" d="M74.34,174.68,0,131.35q.2-26.26.38-52.51L71.64,38.38c1.65-1,4.18-1.7,5.87-.72l115.78,67.19c3.52,2,4.15,7.72.65,9.78l-105.06,60a14.69,14.69,0,0,1-14.54.05Z"/><path id="Path-2" class="cls-3" d="M83.42,88.69,61.67,101.1s33.53,20.46,40.39,23.34l12.54-18"/><path id="Path-3" class="cls-4" d="M75.92,148.26,54.15,135.87,32.42,148.29s11.34,6.92,22.18,13.27C61.42,156.69,68.32,151.77,75.92,148.26Z"/><path id="Path-4" class="cls-5" d="M29,71.73,15.2,79.61s1.17,7.22,8,10.11L41.31,78.14"/><ellipse id="Oval" class="cls-6" cx="35.77" cy="73.75" rx="8.33" ry="5.86"/><ellipse id="Oval-2" class="cls-7" cx="35.76" cy="70.29" rx="6.24" ry="2.55"/><path id="Shape" class="cls-8" d="M35.54,66a30.61,30.61,0,0,0-.13-3.45l-.09-.9-.06-.58a3,3,0,0,0-.09-.6l-.12-.7A27.47,27.47,0,0,0,30.6,48.88a16,16,0,0,0-1.25,6.37c0,.65.06,1.29.11,1.9v.37a4.64,4.64,0,0,0,.17.93,27.74,27.74,0,0,0,1,3.45,20.69,20.69,0,0,0,1.35,3c.57,1.09,1.18,2.15,1.85,3.19.51.81,1,1.53,1.49,2.22A41.33,41.33,0,0,0,35.54,66ZM32.26,53.09a1.14,1.14,0,0,0,0-.45c.16.16.32.33.47.5a1.24,1.24,0,0,0-.47,0Z"/><path id="Shape-2" class="cls-8" d="M37.68,66.92a32.13,32.13,0,0,0,1.75-3c.15-.27.28-.53.42-.8l.26-.53.25-.55c.09-.22.19-.44.28-.65a27.52,27.52,0,0,0,2.14-11.57,15.73,15.73,0,0,0-4.5,4.69c-.34.54-.65,1.09-.94,1.65l-.13.24v.1l-.36.87a25.56,25.56,0,0,0-1,3.44,21.17,21.17,0,0,0-.5,3.27c-.11,1.22-.17,2.44-.17,3.67,0,1,0,1.83.06,2.67C36,69.3,36.9,68.13,37.68,66.92Zm4.24-12.66a1,1,0,0,0,.22-.4,4.4,4.4,0,0,0,.12.65A1.2,1.2,0,0,0,41.92,54.26Z"/><path id="Shape-3" class="cls-8" d="M37.63,69.79c.65-.33,1.29-.67,1.93-1.05l.49-.29.31-.2.31-.22.36-.26a17.36,17.36,0,0,0,4.89-5.55A10.25,10.25,0,0,0,42,63.3a9.74,9.74,0,0,0-1,.59l-.15.09-.48.36a15,15,0,0,0-1.67,1.52,13.52,13.52,0,0,0-1.32,1.6c-.46.65-.88,1.29-1.29,1.93a16.88,16.88,0,0,0-.83,1.47c.75-.31,1.58-.67,2.39-1.07ZM44,64.32a.77.77,0,0,0,.25-.14,1.05,1.05,0,0,1-.16.4.54.54,0,0,0-.09-.25Z"/><path id="Shape-4" class="cls-8" d="M35.54,66a30.61,30.61,0,0,0-.13-3.45l-.09-.9-.06-.58a3,3,0,0,0-.09-.6l-.12-.7A27.47,27.47,0,0,0,30.6,48.88a16,16,0,0,0-1.25,6.37c0,.65.06,1.29.11,1.9v.37a4.64,4.64,0,0,0,.17.93,27.74,27.74,0,0,0,1,3.45,20.69,20.69,0,0,0,1.35,3c.57,1.09,1.18,2.15,1.85,3.19.51.81,1,1.53,1.49,2.22A41.33,41.33,0,0,0,35.54,66ZM32.26,53.09a1.14,1.14,0,0,0,0-.45c.16.16.32.33.47.5a1.24,1.24,0,0,0-.47,0Z"/><path id="Shape-5" class="cls-8" d="M37.68,66.92a32.13,32.13,0,0,0,1.75-3c.15-.27.28-.53.42-.8l.26-.53.25-.55c.09-.22.19-.44.28-.65a27.52,27.52,0,0,0,2.14-11.57,15.73,15.73,0,0,0-4.5,4.69c-.34.54-.65,1.09-.94,1.65l-.13.24v.1l-.36.87a25.56,25.56,0,0,0-1,3.44,21.17,21.17,0,0,0-.5,3.27c-.11,1.22-.17,2.44-.17,3.67,0,1,0,1.83.06,2.67C36,69.3,36.9,68.13,37.68,66.92Zm4.24-12.66a1,1,0,0,0,.22-.4,4.4,4.4,0,0,0,.12.65A1.2,1.2,0,0,0,41.92,54.26Z"/><path id="Shape-6" class="cls-8" d="M37.63,69.79c.65-.33,1.29-.67,1.93-1.05l.49-.29.31-.2.31-.22.36-.26a17.36,17.36,0,0,0,4.89-5.55A10.25,10.25,0,0,0,42,63.3a9.74,9.74,0,0,0-1,.59l-.15.09-.48.36a15,15,0,0,0-1.67,1.52,13.52,13.52,0,0,0-1.32,1.6c-.46.65-.88,1.29-1.29,1.93a16.88,16.88,0,0,0-.83,1.47c.75-.31,1.58-.67,2.39-1.07ZM44,64.32a.77.77,0,0,0,.25-.14,1.05,1.05,0,0,1-.16.4.54.54,0,0,0-.09-.25Z"/><path id="Path-5" class="cls-9" d="M92.08,83.84l-12,5.79A2.74,2.74,0,0,0,78.47,92a2.8,2.8,0,0,0,1.37,2.51l28.58,16.67a2.77,2.77,0,0,0,3.73-.9l6.94-10.79"/><path id="Path-6" class="cls-10" d="M157.61,55.92,61.54.58a4.33,4.33,0,0,0-6.49,3.75V61.91A3.6,3.6,0,0,0,56.85,65l102.42,59.1a2.31,2.31,0,0,0,3.16-.82,2.35,2.35,0,0,0,.32-1.18V64.78A10.21,10.21,0,0,0,157.61,55.92Z"/><path id="Path-7" class="cls-11" d="M61.55,4.93l93.17,53.59A6.54,6.54,0,0,1,158,64.18v43.16a2.36,2.36,0,0,1-2.41,2.31,2.44,2.44,0,0,1-1.12-.31l-95-54.44a2.33,2.33,0,0,1-1.18-2V6.83a2.19,2.19,0,0,1,3.28-1.9Z"/><ellipse id="Oval-3" class="cls-12" cx="100.31" cy="84.06" rx="2.03" ry="2.32" transform="translate(-14.09 20.49) rotate(-10.9)"/><path id="Path-8" class="cls-13" d="M86.59,63.48l43.3,26,21.39-12.43L113.06,54.82"/><path id="Path-9" class="cls-14" d="M140.1,58.31,93.29,29.77a1.61,1.61,0,0,0-2.21.59,1.55,1.55,0,0,0-.22.87V47.49A1.69,1.69,0,0,0,91.67,49l46.81,27.93a1.61,1.61,0,0,0,2.41-1.4l.24-15.16a2.27,2.27,0,0,0-1-2Z"/><path id="Path-10" class="cls-11" d="M128.9,66.67c1.68,2.35,4.63,3,6.58,1.48s2.19-4.68.51-7-4.63-3-6.59-1.47S127.22,64.33,128.9,66.67Z"/><path id="Path-11" class="cls-15" d="M124.31,55.41l-19.1-11.5a.73.73,0,0,0-1,.39.75.75,0,0,0,.23.86l19.09,11.49a.73.73,0,0,0,1-.4A.72.72,0,0,0,124.31,55.41Z"/><path id="Path-12" class="cls-15" d="M123.52,60.08,97.2,44.24a.72.72,0,0,0-.87.33.72.72,0,0,0,.17.91l26.29,15.85a.75.75,0,0,0,.73-1.29Z"/><path id="Path-13" class="cls-10" d="M130.76,61.46,84,32.93a1.61,1.61,0,0,0-2.21.59,1.55,1.55,0,0,0-.22.87V50.64a1.69,1.69,0,0,0,.81,1.47L129.16,80a1.6,1.6,0,0,0,2.19-.57,1.66,1.66,0,0,0,.22-.87l.25-15.15a2.27,2.27,0,0,0-1.06-2Z"/><path id="Path-14" class="cls-11" d="M119.56,69.83c1.68,2.34,4.63,3,6.58,1.47s2.19-4.68.51-7-4.63-3-6.59-1.47S117.88,67.48,119.56,69.83Z"/><path id="Path-15" class="cls-15" d="M115,58.56,95.86,47.07a.72.72,0,0,0-1,.29.73.73,0,0,0,.25,1l19.09,11.5a.73.73,0,0,0,.93-.29.72.72,0,0,0-.2-1h0Z"/><path id="Path-16" class="cls-15" d="M114.17,63.26,87.86,47.39a.71.71,0,0,0-.93.29.73.73,0,0,0,.2,1l26.29,15.8a.75.75,0,0,0,.73-1.29Z"/><path id="Path-17" class="cls-6" d="M119,63.37,72.22,34.85a1.61,1.61,0,0,0-2.21.56,1.57,1.57,0,0,0-.22.9V52.56A1.72,1.72,0,0,0,70.61,54l46.81,28a1.6,1.6,0,0,0,2.2-.58,1.62,1.62,0,0,0,.22-.86l.24-15.15a2.28,2.28,0,0,0-1-2Z"/><path id="Path-18" class="cls-6" d="M119,63.37,72.22,34.85a1.61,1.61,0,0,0-2.21.56,1.57,1.57,0,0,0-.22.9V52.56A1.72,1.72,0,0,0,70.61,54l46.81,28a1.6,1.6,0,0,0,2.2-.58,1.62,1.62,0,0,0,.22-.86l.24-15.15a2.28,2.28,0,0,0-1-2Z"/><path id="Path-19" class="cls-11" d="M107.81,71.74c1.68,2.35,4.63,3,6.59,1.47s2.18-4.67.5-7-4.63-3-6.59-1.47S106.15,69.39,107.81,71.74Z"/><path id="Path-20" class="cls-15" d="M103.22,60.47,84.12,49a.73.73,0,0,0-1,.39.75.75,0,0,0,.23.86l19.09,11.49a.71.71,0,0,0,.93-.29.72.72,0,0,0-.2-1h0Z"/><path id="Path-21" class="cls-15" d="M102.42,65.15,76.11,49.31a.73.73,0,0,0-1,.39.75.75,0,0,0,.23.86L101.69,66.4a.73.73,0,0,0,.74-1.25Z"/><path id="Path-22" class="cls-16" d="M57.6,61.78A22.75,22.75,0,0,0,51,71.5c-2.33,6.43,3.45,16.94,3.45,16.94l9.06-7.17"/><path id="Path-23" class="cls-17" d="M56.62,146.8l-2.46-1.35.65-3.52s3.66.35,4,1.65"/><path id="Path-24" class="cls-10" d="M57.52,146.75c.56-.34,1.13-.64,1.71-.94,1.42-.78,3.47-1.59,4.35-3.05a1.69,1.69,0,0,0-.12-1.92c-1.29-1.56-4.1,1-5.55-.73-.28-.34-.41-5.74-.41-5.74L52,135.84s-.93,10.87-.83,11.54,2,1.29,2,1.29a4.76,4.76,0,0,0,1.58-.65c.58-.41,0-5.51.79-4.8s1,3.51,1,3.51a4,4,0,0,0,.91,0Z"/><path id="Path-25" class="cls-17" d="M67.09,152.06l-2.46-1.34.64-3.51s3.66.35,4,1.64"/><path id="Path-26" class="cls-10" d="M68,152c.56-.35,1.14-.65,1.71-.95,1.42-.78,3.47-1.58,4.35-3a1.72,1.72,0,0,0-.12-1.93c-1.29-1.56-4.1,1-5.54-.72-.29-.34-.42-5.75-.42-5.75l-5.48,1.48s-.94,10.91-.83,11.55,2,1.28,2,1.28a4.74,4.74,0,0,0,1.58-.64c.57-.42,0-5.52.78-4.8S67.1,152,67.1,152A4,4,0,0,0,68,152Z"/><path id="Path-27" class="cls-18" d="M49.23,116.73l-1.61,21.58s2.57,3.55,11.2,1.58l.08-14.55"/><path id="Path-28" class="cls-18" d="M59.19,121c-.18,1.86,0,22.36,0,22.36s2.39,4.47,12.78,0l-.15-17.42"/><path id="Path-29" class="cls-18" d="M48.42,123.86c.7.49.95-2,1.69-1.6A41.29,41.29,0,0,0,58.64,126h.06a.61.61,0,0,1,.46,0,.55.55,0,0,1,.33.32,46.18,46.18,0,0,0,5.59,1.28c2.43.39,4.43-1.4,6.92-1.53,0-9.53,0-36.65-4-42.44l-12-4c-.06,1-5.83,7.68-5.69,15.83a182.07,182.07,0,0,1-1.24,20.74C49,116.64,48.42,123.34,48.42,123.86Z"/><path id="Path-30" class="cls-16" d="M69.09,72.66,68,83.59s-9,.36-12.82-2.3V72"/><path id="Path-31" class="cls-19" d="M80.49,65.46l-.92,1.25a30.14,30.14,0,0,0,1.29-3.12c.26-.72-.91-1-1.16-.29l-.14.38c.11-.39.22-.78.32-1.17a.6.6,0,1,0-1.17-.29h0a28.77,28.77,0,0,1-.91,3,21.36,21.36,0,0,0,.43-2.64c.08-.76-1.13-.73-1.2,0a19.27,19.27,0,0,1-.54,3,5.55,5.55,0,0,0-.09-1,.61.61,0,0,0-.26-.43,1.6,1.6,0,0,0-.11-.4.62.62,0,0,0-.67-.4.6.6,0,0,0-.51.58l-.08,4.5a5.21,5.21,0,0,1-.84,1.29A17.18,17.18,0,0,1,75.6,71,16.59,16.59,0,0,1,77,72.28c.38-.48.75-1,1.11-1.46l.12-.13c1.07-1.6,2.17-3.16,3.32-4.68C82,65.44,80.94,64.85,80.49,65.46Z"/><path id="Path-32" class="cls-16" d="M63.42,62.69s4.23,1.14,6,3.86a48.49,48.49,0,0,1,2.83,5.85l3.13-4.86s3.8,1.17,5.3,3c0,0-4.5,9.84-8.43,10.68s-8.09-5.77-8.09-5.77-.86,2.76-.69-.19"/><path id="Path-33" class="cls-20" d="M66.1,73.21a8.71,8.71,0,0,1-2.68-3.82c-.5-1.73.13-3.25.72-4.86a15.32,15.32,0,0,0,1.11-5,49.1,49.1,0,0,0-.26-5,.81.81,0,0,1,0-.22c-.56-1.9-1.72-3.51-4-3.7-5.91-.5-6.25,6-6.2,8.71s.32,4.46-1.64,5.57-3.38,4-1.5,6.4.19,1.49-1.06,3.59-.92,4.71,1.64,5.66,14.46-.83,15.55-1.93A2.27,2.27,0,0,0,68.34,77a6.24,6.24,0,0,0-2.23-3.75Z"/><path id="Shape-7" class="cls-10" d="M71.91,19.21a9.41,9.41,0,0,1,1.67,4.89A3.19,3.19,0,0,1,73,26.38a1.34,1.34,0,0,1-1.6.28,2.51,2.51,0,0,1-.86-.58,3.09,3.09,0,0,1-.55-.7l-.16-.3a1.07,1.07,0,0,1-.15.22,1.3,1.3,0,0,1-.53.22,1.63,1.63,0,0,1-1-.11A3.64,3.64,0,0,1,66.5,23.9a4.81,4.81,0,0,1-.74-2.44,2.36,2.36,0,0,1,.6-1.93,1.39,1.39,0,0,1,1.56-.25,2.84,2.84,0,0,1,.7.44,2.47,2.47,0,0,1,.46.51l.12.21v-.58l1.29.5L70.61,24a1.38,1.38,0,0,0,.24.73,1.19,1.19,0,0,0,.52.47c.62.24.91-.3.87-1.61A7,7,0,0,0,71,19.93a6,6,0,0,0-2.85-2.43,2.4,2.4,0,0,0-2.67.34,3.66,3.66,0,0,0-1,3,7.72,7.72,0,0,0,1.29,3.85,5.88,5.88,0,0,0,2.75,2.58,3.32,3.32,0,0,0,1.28.25,1.73,1.73,0,0,0,.84-.16l.26-.14.77,1.45-.12.09a2.64,2.64,0,0,1-.38.18,2.52,2.52,0,0,1-.65.18,3,3,0,0,1-.85,0,4.6,4.6,0,0,1-1.09-.28A7.07,7.07,0,0,1,66,27a11.1,11.1,0,0,1-2-3.11,9.43,9.43,0,0,1-.82-3.46,5.49,5.49,0,0,1,.59-2.9,3.24,3.24,0,0,1,1.83-1.6,3.46,3.46,0,0,1,2.53.13,8.1,8.1,0,0,1,3.77,3.22Zm-2.83,4.58a1.34,1.34,0,0,0,.26-1A2.48,2.48,0,0,0,69,21.6a1.66,1.66,0,0,0-.78-.7.68.68,0,0,0-.79.1,1.12,1.12,0,0,0-.28.93,2.44,2.44,0,0,0,.36,1.2,1.77,1.77,0,0,0,.82.73.65.65,0,0,0,.75-.11"/><path id="Shape-8" class="cls-10" d="M147.86,88.85a9.41,9.41,0,0,1,1.67,4.89A3.19,3.19,0,0,1,149,96a1.34,1.34,0,0,1-1.6.27,2.49,2.49,0,0,1-.86-.57A3.14,3.14,0,0,1,146,95l-.16-.3a1.07,1.07,0,0,1-.15.22,1.19,1.19,0,0,1-.53.23,1.63,1.63,0,0,1-.95-.11,3.6,3.6,0,0,1-1.68-1.52,4.73,4.73,0,0,1-.75-2.44,2.38,2.38,0,0,1,.59-1.93,1.35,1.35,0,0,1,1.56-.25,2.13,2.13,0,0,1,.7.44,2.85,2.85,0,0,1,.47.51l.12.21V89.5l1.28.49.13,3.62a1.46,1.46,0,0,0,.23.72,1.15,1.15,0,0,0,.53.47c.65.25.91-.29.87-1.61A6.85,6.85,0,0,0,147,89.56a6.06,6.06,0,0,0-2.84-2.43,2.4,2.4,0,0,0-2.68.33,3.66,3.66,0,0,0-1,3,7.6,7.6,0,0,0,1.29,3.85,5.9,5.9,0,0,0,2.78,2.49,3.29,3.29,0,0,0,1.28.26,2,2,0,0,0,.84-.15l.26-.15.77,1.45-.12.09a2.64,2.64,0,0,1-.38.18,2.52,2.52,0,0,1-.65.18,3.1,3.1,0,0,1-.86,0,4.52,4.52,0,0,1-1.08-.28A7.07,7.07,0,0,1,142,96.49a10.93,10.93,0,0,1-2-3.12,9.37,9.37,0,0,1-.82-3.45,5.46,5.46,0,0,1,.59-2.89,3.27,3.27,0,0,1,1.83-1.62,3.59,3.59,0,0,1,2.54.13,8.2,8.2,0,0,1,3.68,3.31ZM145,93.42a1.26,1.26,0,0,0,.27-1,2.48,2.48,0,0,0-.34-1.19,1.56,1.56,0,0,0-.77-.71.7.7,0,0,0-.8.1,1.2,1.2,0,0,0-.29.93,2.52,2.52,0,0,0,.37,1.19,1.69,1.69,0,0,0,.82.74.66.66,0,0,0,.74-.11"/><path id="Path-34" class="cls-21" d="M19.67,116.27.2,105.19,0,129.55S12.42,119.63,19.67,116.27Z"/></g></g></g></g></g></g></g></g></svg>